<?xml version="1.0" encoding="UTF-8"?>
<svg id="Layer_1" data-name="Layer 1" xmlns="http://www.w3.org/2000/svg" version="1.1" viewBox="0 0 252 57.8">
  <defs>
    <style>
      .cls-1 {
        fill: #000;
      }

      .cls-1, .cls-2 {
        stroke-width: 0px;
      }

      .cls-2 {
        fill: #231f20;
      }
    </style>
  </defs>
  <g>
    <g>
      <path class="cls-2" d="M217.6,54.3c-1.3,0-2.4-1.1-2.4-2.4s1.1-2.4,2.4-2.4,2.4,1.1,2.4,2.4-1.1,2.4-2.4,2.4ZM217.6,50.1c-1,0-1.8.8-1.8,1.8s.8,1.8,1.8,1.8,1.8-.8,1.8-1.8-.8-1.8-1.8-1.8Z"/>
      <path class="cls-2" d="M217.6,54.8c-1.6,0-2.9-1.3-2.9-2.9s1.3-2.9,2.9-2.9,2.9,1.3,2.9,2.9-.3,1.5-.9,2.1c-.6.6-1.3.9-2.1.9ZM217.6,50.6c-.7,0-1.3.6-1.3,1.3s.6,1.3,1.3,1.3,1.3-.6,1.3-1.3-.1-.7-.4-.9c-.2-.2-.6-.4-.9-.4h0Z"/>
    </g>
    <path class="cls-1" d="M219.1,27.3c-.2-1-.7-2.1-1.7-2.4-1.4-.6-3.5,0-4.6,1.5-.9,1.1-1.4,2.3-2.1,3.5-.5.9-.8,2-1.1,2.9-.7,1.7-1.2,3.3-1.9,5-.6,1.6-1.4,2.9-2.5,4.2-.3.4-.8.9-1.5.7-.7-.2-.8-.8-.9-1.4,0-.9.1-1.9,0-2.8,0-.3-.1-.5-.4-.7-.3-.2-.6-.2-.9,0-.4,0-.6.6-.7,1-.1.4-.2.9-.2,1.4,0,.5,0,.9.1,1.4s0,.9.2,1.3c.2.7.6,1.3,1.2,1.7.3.2.7.4,1.1.5,1.2.3,2.5-.2,3.3-1.1,1-1.1,1.9-2.3,2.5-3.7,1-2.5,2-5,2.9-7.5.6-1.7,1.3-3.3,2.4-4.8.4-.5.9-1.1,1.8-.8.7.2.7.8.9,1.4.2.9,0,1.7-.1,2.6,0,.6-.2,1.1.6,1.3.8.2,1.3-.3,1.4-.8.1-1.4.6-2.7.3-4.1h0Z"/>
    <path class="cls-1" d="M201.9,29.9c.2-.5.4-1,.6-1.5.4-1,.9-2,1.2-3,0-.1,0-.2.1-.4.3-.9.6-1.9.7-2.9,0-.5,0-.9,0-1.4,0-1.9-.7-3.2-2.2-4.1-1.6-.9-3.3-1.1-4.9,0-.6.4-1.3.8-1.9,1.3-.5.4-1,0-1.1-.2-.2-.7-.7-.9-1.2-1.2-1-.8-2.8-.9-3.8-.2-1.1,1-2.1,2-2.7,3.4-.1.4-.4.7-.7.7-.3,0-.3-.5-.6-.7,0,0,0-.2,0-.3-1-3.2-4.6-4.7-7.5-2.6-1.3.9-2.3,2-3.1,3.4-.8,1.3-1.9,2.5-2.5,4-.7,1.9-1.6,3.7-1.8,5.8-.2,2,.4,3.8,2.1,5,.9.6,1.9,1.1,3,.9,2.1-.3,3.6-1.7,5-3.3.8-.9,1.4-2.1,2-3.2.9-1.6,1.9-3.2,2.3-5,.1-.9.6-1.1,1.4-1.1.5,0,.8,0,1.2-.6.9-1.2,1.4-2.7,2.4-3.8.8-.9,1.9-1.2,2.3-.3.4.7.4,1.5.2,2.2-.5,2-1.1,4-1.7,6-.8,2.5-2,4.8-2.7,7.4-.2.6-.3,1.1.3,1.4.6.3,1.2.1,1.6-.6.4-.9.6-1.8,1-2.7.9-2.1,1.6-4.2,2.4-6.3.2-.7.3-1.4.6-2,.6-1.2,1.4-2.2,2.2-3.3.8-1.1,1.7-2,3-2.5.6-.2,1.4-.2,1.9.1,1,.6,1.7,2.4,1.4,3.6-.5,2.1-1.2,4.2-2,6.2-.9,2-1.9,4-2.7,6.1-.2.6,0,1.1.2,1.3.4.3,1,.2,1.4-.2.1-.2.3-.3.4-.5.2-.5.5-1,.7-1.5.1-.2.2-.5.4-.8.2-.4.4-.8.6-1.2.1-.2.2-.4.3-.7s.2-.5.3-.7h0ZM182.8,24.3c-.5,1.2-.8,2.5-1.5,3.6-1.2,2-2.4,4.2-4.5,5.4-.5.3-1,.4-1.6.3-1.5,0-2.7-1.7-2.6-3.2.2-2,.9-3.9,1.8-5.6.9-1.8,1.9-3.6,3.4-5.1.7-.7,1.2-1.3,2.2-1.6,2-.4,3.1.5,3.4,2.4.2,1.3-.1,2.5-.7,3.8h0Z"/>
    <path class="cls-1" d="M148.1,31.7c-.7.4-1,1-1.3,1.6-.8,1.4-2,2.2-3.5,2.7-.8.3-2.8-.8-3.1-1.7-.4-1-.8-1.1-1.6-.6-.7.5-1.3,1-2.1,1.4-2.5,1.2-5.3.1-6.3-2.5-.6-1.7-.3-3.3,0-4.9.3-1.6,1.1-3.1,1.8-4.6.4-.8.6-1.8,1-2.6.6-1.4,1.1-2.8,1.9-4.1.3-.4.7-.7,1.3-.4.6.3.4.7.3,1.1-.4,1.7-1.2,3.3-2,4.9-.9,1.8-1.5,3.7-2.1,5.6-.3.9-.6,1.9-.6,2.8,0,.9.2,1.8.9,2.4.7.6,1.6.8,2.4.5,1.3-.5,2.3-1.2,3.1-2.5.6-1,1.4-2,2-3.1.6-1,.8-2.3,1.2-3.4.9-2.3,1.8-4.6,2.7-6.9,0-.2.2-.3.2-.5,0-.6.4-.9.8-1.1.4-.2.8.1,1,.4.3.4.4,1,.1,1.4-1,1.8-1.6,3.8-2.3,5.7-.7,1.8-1.3,3.7-1.8,5.6-.3,1.1-.5,2.4-.2,3.6.3,1,1.2,1.4,2,.7,1.2-1,2.1-2.2,2.5-3.7.3-.9.8-1.3,1.6-1.3.7,0,1.1-.4,1.2-.9.4-1.4,1.1-2.8,1.5-4.2.3-1.2.8-2.3,1.2-3.5.3-.8.3-1.5-.2-2.2-.5-.9-.3-1.6.6-1.8,1.5-.3,2-1.4,2.3-2.6.3-1.2,1.1-2.2,1.4-3.4.1-.7.5-1.4.8-2.2.3-.7.7-1,1.5-.7.9.3.7.9.4,1.4-1.2,2.5-2,5.2-3.1,7.7-.4.8-1,1.7-.6,2.8.6,1.5,2.7,3,4.4,2.9.4,0,.8-.2,1.1.2.6.8.5,1.3-.4,1.6-1.7.6-3.2,0-4.6-1-.5-.4-1.1-1.1-2-.7-.6.2-.4.8-.5,1.1-1.1,2.9-2.2,5.8-2.5,8.9,0,.8,0,1.6.9,1.8.7.2,1.4,0,1.8-.8.8-1.4,1.8-2.6,2.6-4.1.3-.5.9-.7,1.5-.4.6.3.4.8.2,1.4-.5,1.8-1.9,3.1-2.8,4.6-.6.9-1.6,1.6-2.7,1.7-1.3.2-3.1-.8-3.4-2.5-.1-.6-.4-1.1-.5-1.7h0Z"/>
    <path class="cls-1" d="M130.6,21.5c-.3,2.2-1,4.2-2,6.2-.8,1.4-1.6,2.8-2.4,4.2-.7,1.1-1.5,2.1-2.7,2.7-.8.4-1.4,1-2.4,1.2-2.1.3-3.4-.7-4.8-2-.8-.8-1.1-.8-1.7.2-.9,1.4-2.5,2.1-4.1,1.8-.9-.2-2-1.5-2.1-2.4,0-.9,0-1.9,0-2.8,0-.7.4-1.1.6-1.7,0-.3.3-.5.7-.3.3.2.8-.1.9.5,0,.4.2.8,0,1.3-.2.8-.4,1.6,0,2.4.6,1,1.1,1.2,2,.4,1.1-1,1.8-2.2,2.4-3.5.9-1.9,1.9-3.8,2.7-5.9.7-1.8,1.5-3.6,2.2-5.4.7-1.7,1.4-3.4,2.1-5.1.8-1.8,1.6-3.6,2.2-5.5.2-.7.6-.9,1.2-.7.6.2,1,.7.7,1.4-.8,2.1-1.6,4.2-2.5,6.3-.2.4-.4.9-.1,1.3.3.4.7,0,1.1,0,1.9-.5,3.5.1,4.9,1.3.6.5.8,1.3,1,1.9.1.7.4,1.4.2,2.2h0ZM128.5,21.4c0-1.6-.6-2.7-1.9-3.2-1.1-.4-2.2.1-3.1.9-1.7,1.5-3,3.3-3.9,5.4-.9,1.9-1.8,3.9-1.9,6.1,0,1,.9,3,1.8,3.2,1.2.2,2.3-.2,3.2-.9,1.5-1.2,2.4-2.9,3.4-4.5.8-1.2,1.4-2.6,1.7-4,.3-1,.8-1.9.7-2.9h0Z"/>
    <path class="cls-1" d="M162.1,30.4c-.2.4-.1,1.1-.2,1.8,0,.6.2,1.1.6,1.4.5.3,1.1,0,1.5-.3,1.2-1.2,2.2-2.6,3-4.2.2-.4.6-1.1,1.4-.7.8.3.9.8.5,1.6-1,2.1-2.2,3.9-3.9,5.4-1.2,1.1-3.5.5-4.4-.8-1.1-1.5-.7-3-.5-4.6.3-2.2,1.3-4.3,1.8-6.4.2-1,.8-1.9,1.1-2.9.4-.9.7-2,0-3.1-.5-.7-.1-1.5.8-1.7,1.1-.2,1.6-1,1.9-1.9.7-2.2,1.8-4.3,2.6-6.5.2-.6.7-1,1.4-.6.6.3.7.8.4,1.4-.8,2.1-1.6,4.1-2.4,6.2-.4.9-.7,1.8-1,2.7-.7,1.9.1,3,1.6,3.8.8.5,1.7,1,2.8.7.6-.2,1.3.4,1.2,1.1,0,.5-.5.9-1.1,1-2,.4-3.5-.4-4.9-1.7-.5-.5-1.4-.3-1.7.4-.7,1.8-1.4,3.5-1.8,5.4-.2.8-.7,1.6-.6,2.7h0Z"/>
  </g>
  <g>
    <path class="cls-1" d="M40.4,29.9c0,1-.9,1.6-1.3,2.3-.6.9-1.2,1.9-2.2,2.6-1,.7-2.5,1.2-3.6.7-1.3-.5-1.6-1.6-1.8-2.7-.3-1.8.3-3.6.9-5.3.2-.8.5-1.7.8-2.5,1.2-3,2.3-6,3.4-9,.8-2,1.5-3.9,1.8-6,0-.3,0-.5,0-.8-.3-1.3-.8-1.6-1.8-.8-1,.9-2,1.9-2.4,3.3-.2.7-.5,1.2-1.2,1.4-.8.2-1.4-.4-1.1-1.2.6-1.9,1.6-3.7,3.1-5,.9-.7,2-1.4,3.4-1,1.1.3,2.2,1.5,2.1,2.6-.1,1.6-.3,3.1-.7,4.7-.8,2.8-2.2,5.3-3.1,8-1,3-2.3,5.9-3,9-.1.6-.1,1.3-.2,1.9,0,.5.2,1.1.8,1.3.7.2,1.2,0,1.6-.5,1.1-1.1,1.8-2.6,2.5-4s.9-1,1.6-.8c.8.3,1.2.1,1.5-.7.4-1.1.6-2.2,1.2-3.2,1-1.8,1.8-3.6,3.1-5.2,1.2-1.5,2.5-2.8,4.4-3.2,1.2-.2,2.5-.2,3.8.8,2.6,2.1,2.3,4.8,1.5,7.4-.8,2.7-2.2,5.2-3.8,7.6-1.2,1.7-2.7,3.1-4.6,3.9-1.3.6-3.9-.2-4.9-1.4-.7-.8-1.1-1.8-1.2-2.8,0-.5-.3-1-.6-1.5h0ZM51,18.1c-.6-.2-1,.1-1.4.5-1.1,1-2.1,1.9-2.9,3.2-.9,1.4-1.7,2.8-2.4,4.2-.8,1.6-1,3.3-1.2,5.1,0,1.3,1.5,2.7,2.7,2.7,1.9,0,2.9-1.4,3.9-2.7,1.1-1.3,1.8-2.9,2.6-4.5.8-1.6,1.5-3.3,1.6-5.1.1-2.1-.8-3.3-2.9-3.4h0Z"/>
    <path class="cls-1" d="M87.5,23.4c0-.7.4-1.1.8-1.6.8-.7,1.1-1.8,1.8-2.6.4-.5.5-1.3.1-1.8-.4-.6.1-.9.2-1.2.1-.4.7-.3.9,0,1,.7,1.9.3,2.8,0,.3,0,.6-.1.8-.2,2.9-.4,5.6,2.3,5.3,4.7-.2,2.2-.9,3.2-3.5,3.1-1.7,0-2.9-1.1-4-2.2-.7-.7-1.2-.7-1.7,0-1.6,2.2-2.8,4.6-3.5,7.3-.3,1.3-.3,2.3.2,3.5.4.8,1.6,1.5,2.5,1.3,1.7-.3,2.7-1.6,3.7-2.8.5-.6.9-1.3,1.3-1.9.4-.5.9-.6,1.4-.2.5.3.5.7.3,1.2-.7,1.4-1.7,2.5-2.7,3.6-.8.8-1.5,1.5-2.5,1.9-2.4.9-5.1-.2-6.1-2.6-.5-1.2-.5-2.6-.2-3.9.2-1.3.5-2.5,1.2-3.7.3-.5.4-1.2.5-1.8,0,0,.1,0,.2-.1h0ZM98.4,20.7c0-1.7-2.1-3.1-3.8-2.5-.7.2-1,1.1-.5,1.6.7.7,1.3,1.4,2.3,1.8,1.1.4,2,0,2-.9h0Z"/>
    <path class="cls-1" d="M68,27.8c0,.4,0,.9-.2,1.3-1.4,4.3-3.3,8.4-6.8,11.4-2.1,1.8-5.8,1.2-7.2-1-.6-.9-.8-2.1-.7-3.2.2-2.3.9-4.6,2-6.6.5-1,1.1-1.9,1.7-2.8.6-1,1.2-1.9,2-2.7,1.7-1.8,3.7-3,6.2-2.1,1.8.6,2.8,2,3.1,3.9,0,.6.2,1.2.1,1.9h0ZM55,36.9c-.2,1.5,1.5,2.9,3.4,2.5,1.2-.2,2-1.1,2.7-1.9,1.8-2.2,3.2-4.7,4.2-7.4.4-1.1.4-2.2.7-3.3.2-.7-.8-2.5-1.5-2.7-1.3-.5-2.5-.2-3.5.7-2,1.9-3.4,4.2-4.5,6.6-.7,1.6-1.2,3.2-1.4,5.5h0Z"/>
    <path class="cls-1" d="M87.3,23.6c-.3-.2-.6-.2-.9-.2-1-.2-1.1-.6-1-1.5.2-1,.6-2,0-3-.4-1-1.2-1.3-2-.5-.6.6-1.1,1.3-1.6,2.2-.9,1.7-1.5,3.5-2.2,5.2-.6,1.6-1.3,3.2-1.9,4.8-.7,1.9-1.9,3.6-3.6,4.9-1,.8-3.2.6-4-.4-1.6-1.8-1.2-3.9-.7-6,.1-.6.7-.5,1-.4.5.2.9.6.9,1.3,0,.8,0,1.6,0,2.4,0,.5,0,1.2.7,1.3.8.1,1.4-.2,1.9-.8,1.4-1.5,2.2-3.4,2.9-5.2.8-2.1,1.4-4.2,2.3-6.3.8-1.9,1.6-4,3.6-5.1.8-.4,1.7-.7,2.7-.5.9.2,1.8,1.7,2.1,2.6.4,1.1-.1,2.2.1,3.2.2.6-.4,1.2-.2,1.9,0,0-.1,0-.2.1h0Z"/>
  </g>
</svg>